<svg id="Слой_1" data-name="Слой 1" xmlns="http://www.w3.org/2000/svg" xmlns:xlink="http://www.w3.org/1999/xlink" viewBox="0 0 328.6 386.32"><defs><style>.cls-1{fill:none;}.cls-2{clip-path:url(#clip-path);}</style><clipPath id="clip-path" transform="translate(-256 -104.84)"><rect class="cls-1" x="256" y="104.28" width="328.8" height="387.84"/></clipPath></defs><title>avatar</title><g class="cls-2"><path d="M418.9,313h2.56c23.44-.4,42.4-8.64,56.4-24.4,30.8-34.72,25.68-94.24,25.12-99.92-2-42.64-22.16-63-38.8-72.56-12.4-7.12-26.88-11-43-11.28h-1.36c-8.88,0-26.32,1.44-43,11s-37.28,29.92-39.28,72.88c-0.56,5.68-5.68,65.2,25.12,99.92,13.92,15.76,32.88,24,56.32,24.4h0ZM358.82,190.68c0-.24.08-0.48,0.08-0.64,2.64-57.36,43.36-63.52,60.8-63.52h1C442.26,127,479,135.8,481.46,190a1.52,1.52,0,0,0,.08.64c0.08,0.56,5.68,55-19.76,83.6-10.08,11.36-23.52,17-41.2,17.12h-0.8c-17.6-.16-31.12-5.76-41.12-17.12-25.36-28.48-19.92-83.12-19.84-83.6h0Zm0,0" transform="translate(-256 -104.84)"/><path d="M584.58,411.72v-0.24c0-.64-0.08-1.28-0.08-2C584,393.64,583,356.6,548.26,344.76l-0.8-.24c-36.08-9.2-66.08-30-66.4-30.24A10.8,10.8,0,0,0,468.66,332c1.36,1,33.2,23.12,73,33.36,18.64,6.64,20.72,26.56,21.28,44.8a15.69,15.69,0,0,0,.08,2c0.08,7.2-.4,18.32-1.68,24.72-13,7.36-63.76,32.8-141,32.8-77,0-128.08-25.52-141.12-32.88-1.28-6.4-1.84-17.52-1.68-24.72,0-.64.08-1.28,0.08-2,0.56-18.24,2.64-38.16,21.28-44.8,39.84-10.24,71.68-32.48,73-33.36a10.8,10.8,0,1,0-12.4-17.68c-0.32.24-30.16,21-66.4,30.24-0.32.08-.56,0.16-0.8,0.24-34.72,11.92-35.76,49-36.24,64.72a16.23,16.23,0,0,1-.08,2v0.24c-0.08,4.16-.16,25.52,4.08,36.24a10.24,10.24,0,0,0,4.16,5c2.4,1.6,59.92,38.24,156.16,38.24s153.76-36.72,156.16-38.24a10.69,10.69,0,0,0,4.16-5c4-10.64,3.92-32,3.84-36.16h0Zm0,0" transform="translate(-256 -104.84)"/></g></svg>