<svg id="Слой_1" data-name="Слой 1" xmlns="http://www.w3.org/2000/svg" viewBox="0 0 308.4 388.4"><title>book</title><path d="M563.68,204.24H327.12a39.84,39.84,0,1,1,0-79.68H563.76a10.64,10.64,0,0,0,0-21.28H327.12A61.22,61.22,0,0,0,266,164.4V430.56a61.22,61.22,0,0,0,61.12,61.12H563.76A10.63,10.63,0,0,0,574.4,481V214.88a10.75,10.75,0,0,0-10.72-10.64h0ZM553,470.4H327.12a39.89,39.89,0,0,1-39.84-39.84V210.8a61,61,0,0,0,39.84,14.8H553V470.4Zm0,0" transform="translate(-266 -103.28)"/><path d="M330.48,154.72a10.64,10.64,0,1,0,0,21.28H530.32a10.64,10.64,0,1,0,0-21.28H330.48Zm0,0" transform="translate(-266 -103.28)"/><path d="M367.92,423.84a11.31,11.31,0,0,0,3.6.64,10.57,10.57,0,0,0,10-7l13-36.24H444.4a6.72,6.72,0,0,0,1.28-.08l13,36.32a10.65,10.65,0,0,0,10,7,11.31,11.31,0,0,0,3.6-.64,10.62,10.62,0,0,0,6.4-13.6L430.16,274.32a5,5,0,0,0-.4-1l-0.24-.48-0.24-.48a3.15,3.15,0,0,1-.32-0.56c-0.08-.08-0.16-0.24-0.24-0.32a2,2,0,0,0-.4-0.48,1.2,1.2,0,0,0-.32-0.32,1.83,1.83,0,0,0-.4-0.4l-0.4-.4a1.31,1.31,0,0,1-.32-0.32c-0.16-.16-0.32-0.24-0.48-0.4s-0.24-.16-0.32-0.24-0.32-.24-0.48-0.32l-0.48-.24-0.48-.24a4.86,4.86,0,0,0-1-.4H423.6l-1-.24c-0.16,0-.24-0.08-0.4-0.08s-0.4-.08-0.64-0.16a1,1,0,0,1-.48-0.08c-0.16,0-.4-0.08-0.56-0.08h-1a1.32,1.32,0,0,0-.56.08,1,1,0,0,0-.48.08,1.82,1.82,0,0,0-.64.16c-0.16,0-.24.08-0.4,0.08-0.32.08-.64,0.16-0.88,0.24h-0.08a4.83,4.83,0,0,0-1,.4l-0.48.24-0.48.24a3.3,3.3,0,0,1-.56.32c-0.08.08-.24,0.16-0.32,0.24s-0.32.24-.48,0.4a1.23,1.23,0,0,0-.32.32l-0.8.8a1.2,1.2,0,0,1-.32.32c-0.16.16-.24,0.32-0.4,0.48s-0.16.24-.24,0.32-0.24.32-.32,0.48l-0.24.48-0.24.48a4.77,4.77,0,0,0-.4,1L361.28,410.16a11,11,0,0,0,6.64,13.68h0Zm52.24-114.32,18,50.4H402.08Zm0,0" transform="translate(-266 -103.28)"/></svg>