<?xml version="1.0" encoding="utf-8"?>
<!-- Generator: Adobe Illustrator 19.2.1, SVG Export Plug-In . SVG Version: 6.00 Build 0)  -->
<svg version="1.1" id="Слой_1" xmlns="http://www.w3.org/2000/svg" xmlns:xlink="http://www.w3.org/1999/xlink" x="0px" y="0px"
	 viewBox="0 0 385.3 346.1" style="enable-background:new 0 0 385.3 346.1;" xml:space="preserve">
<title>comp</title>
<g>
	<path d="M337.8,0H47.5C21.3,0,0,21.3,0,47.5v184.1c0,26.2,21.3,47.5,47.5,47.5h134.3v45.4h-67c-6,0-10.8,4.8-10.8,10.8
		s4.8,10.8,10.8,10.8h155.6c6,0,10.8-4.8,10.8-10.8s-4.8-10.8-10.8-10.8h-67v-45.4h134.4c26.2,0,47.5-21.3,47.5-47.5V47.5
		C385.3,21.3,364,0,337.8,0z M363.7,231.6c0,14.3-11.6,25.9-25.9,25.9H47.5c-14.3,0-25.9-11.6-25.9-25.9V223h342.1V231.6z
		 M363.8,201.4H286c-1.2-10.3-5.5-24.4-21.3-29.8l-0.5-0.1l-0.2-0.1c-19.1-4.9-35.2-16-35.4-16.1c-1.9-1.4-4.3-1.9-6.7-1.5
		c-2.4,0.4-4.4,1.7-5.8,3.7c-2.8,4-1.8,9.6,2.2,12.4c0.8,0.5,18.6,12.9,40.8,18.7c5.3,1.9,7.7,6.4,8.8,12.8H119.3
		c1.1-6.5,3.5-10.9,8.8-12.9c19.8-5.1,36.1-15.5,40.6-18.5l0.2-0.2c0,0,0,0,0,0c4-2.8,5-8.4,2.2-12.4c-2.8-4-8.4-5-12.4-2.2
		c-0.2,0.1-16.1,11.2-35.3,16.1c-0.2,0.1-0.4,0.1-0.6,0.2h-0.1c-15.8,5.4-20.1,19.6-21.3,29.9H21.6V47.5c0-14.3,11.6-25.9,25.9-25.9
		c0,0,0,0,0,0h290.3c14.3,0,25.9,11.6,25.9,25.9V201.4z"/>
	<path d="M219.1,46.7c-7.7-4.3-16.3-6.5-25.1-6.6h-0.7c-8.7,0-17.3,2.2-25,6.4c-9.8,5.6-21.8,17.5-23,42.3
		c-0.4,4.1-3,37.2,14.5,56.9c8.2,9.3,19.3,14.1,33,14.4h0l0,0h1.5c13.7-0.2,24.8-5.1,33.1-14.4c17.5-19.7,14.9-52.8,14.5-56.9
		C240.7,64,228.8,52.2,219.1,46.7z M214.2,133.8c-4.9,5.6-11.6,8.3-20.3,8.4h-0.4c-8.8-0.1-15.4-2.8-20.3-8.4
		c-12.7-14.3-10.3-42.1-10.1-43.4l0.1-0.2c0-0.1,0-0.3,0-0.4c1.3-27.8,19.5-31.9,30.3-31.9h0.5C207,58.2,223,64,224.2,89.8
		c0,0.3,0,0.6,0.1,0.8C224.5,93.1,226.5,119.9,214.2,133.8z"/>
</g>
</svg>
