<svg id="Слой_1" data-name="Слой 1" xmlns="http://www.w3.org/2000/svg" viewBox="0 0 386.64 294.24"><title>envelope</title><path d="M566.44,151.28H274.28A47.32,47.32,0,0,0,227,198.56V398.24a47.32,47.32,0,0,0,47.28,47.28H566.36a47.32,47.32,0,0,0,47.28-47.28V198.64a47.27,47.27,0,0,0-47.2-47.36h0Zm25.68,247a25.71,25.71,0,0,1-25.68,25.68H274.28a25.71,25.71,0,0,1-25.68-25.68V198.64A25.71,25.71,0,0,1,274.28,173H566.36A25.71,25.71,0,0,1,592,198.64v199.6h0.08Zm0,0" transform="translate(-227 -151.28)"/><path d="M470.84,295.92l94.56-84.8A10.82,10.82,0,1,0,550.92,195l-130.4,117-25.44-22.72a0.41,0.41,0,0,1-.16-0.24,16.43,16.43,0,0,0-1.76-1.52L289.64,195a10.82,10.82,0,1,0-14.4,16.16l95.68,85.52-95.28,89.2a10.84,10.84,0,0,0-.48,15.28,11.06,11.06,0,0,0,7.92,3.44,10.83,10.83,0,0,0,7.36-2.88l96.72-90.48,26.24,23.44a10.78,10.78,0,0,0,14.4-.08l27-24.16,96.16,91.36a10.82,10.82,0,0,0,15.28-.4,10.84,10.84,0,0,0-.4-15.28Zm0,0" transform="translate(-227 -151.28)"/></svg>