<svg id="Слой_1" data-name="Слой 1" xmlns="http://www.w3.org/2000/svg" xmlns:xlink="http://www.w3.org/1999/xlink" viewBox="0 0 390.24 308.85"><defs><style>.cls-1{fill:none;}.cls-2{clip-path:url(#clip-path);}</style><clipPath id="clip-path" transform="translate(-225 -143.31)"><rect class="cls-1" x="225" y="143.28" width="390.96" height="309.84"/></clipPath></defs><title>glasses</title><g class="cls-2"><path d="M609.48,339.52L557.8,175.44a45.45,45.45,0,0,0-56.64-30.16,10.78,10.78,0,0,0,6.24,20.64,23.79,23.79,0,0,1,29.68,15.84v0.08l37,117.52a80.87,80.87,0,0,0-120,61.12H386a80.9,80.9,0,0,0-120-59.6l37.44-119v-0.08a23.8,23.8,0,0,1,29.68-15.84,10.78,10.78,0,1,0,6.24-20.64,45.48,45.48,0,0,0-56.64,30.16L231.24,339.68a8.15,8.15,0,0,0-.32,1.36,80.86,80.86,0,1,0,155.12,41h68.4a80.86,80.86,0,0,0,160.8-12.24,79.6,79.6,0,0,0-5.76-30.32h0ZM306,430.56a59.28,59.28,0,1,1,59.28-59.28A59.3,59.3,0,0,1,306,430.56h0Zm228.48-1.44a59.28,59.28,0,1,1,59.28-59.28,59.31,59.31,0,0,1-59.28,59.28h0Zm0,0" transform="translate(-225 -143.31)"/></g></svg>