<svg id="Слой_1" data-name="Слой 1" xmlns="http://www.w3.org/2000/svg" xmlns:xlink="http://www.w3.org/1999/xlink" viewBox="0 0 388.96 371.13"><defs><style>.cls-1{fill:none;}.cls-2{clip-path:url(#clip-path);}</style><clipPath id="clip-path" transform="translate(-226 -112.15)"><rect class="cls-1" x="226" y="111.28" width="388.8" height="372.96"/></clipPath></defs><title>house</title><g class="cls-2"><path d="M611.37,279.6l-183-163.68a4.88,4.88,0,0,0-1-.8,10.83,10.83,0,0,0-14.64-.24l-183,163.68A10.82,10.82,0,0,0,244,294.72l33-29.52V456.08a27.23,27.23,0,0,0,27.2,27.2h57.76a25.54,25.54,0,0,0,25.52-25.52v-97a3.93,3.93,0,0,1,3.92-3.92h58.32a3.92,3.92,0,0,1,3.92,3.92v97a25.54,25.54,0,0,0,25.52,25.52h57.76c15.2,0,27.2-15,27.2-34.08v-183l33,29.52a10.87,10.87,0,0,0,15.28-.88,11,11,0,0,0-1-15.28h0Zm-69,53.36V449c0,7.76-3.84,12.48-5.6,12.48H479a3.93,3.93,0,0,1-3.92-3.92V360.72A25.54,25.54,0,0,0,449.6,335.2H391.28a25.54,25.54,0,0,0-25.52,25.52v97a3.92,3.92,0,0,1-3.92,3.92H304.09a5.62,5.62,0,0,1-5.6-5.6V245.84L419.93,137.36,542.41,246.88V333Zm0,0" transform="translate(-226 -112.15)"/></g></svg>