<svg id="Слой_1" data-name="Слой 1" xmlns="http://www.w3.org/2000/svg" xmlns:xlink="http://www.w3.org/1999/xlink" viewBox="0 0 380.96 381.04"><defs><style>.cls-1{fill:none;}.cls-2{clip-path:url(#clip-path);}</style><clipPath id="clip-path" transform="translate(-230 -108.08)"><rect class="cls-1" x="230" y="107.28" width="380.88" height="382.8"/></clipPath></defs><title>pie-chart</title><g class="cls-2"><path d="M559.36,308.24H410.88V159.76a10.76,10.76,0,0,0-10.8-10.8C306.32,149,230,225.28,230,319s76.32,170.08,170.08,170.08S570.16,412.8,570.16,319a10.86,10.86,0,0,0-10.8-10.8h0ZM400.08,467.52c-81.84,0-148.48-66.64-148.48-148.48,0-78.24,60.8-142.56,137.68-148.08V319a10.75,10.75,0,0,0,10.8,10.8H548.16c-5.52,76.88-69.84,137.68-148.08,137.68h0Zm0,0" transform="translate(-230 -108.08)"/><path d="M611,277.6A170.06,170.06,0,0,0,440.88,108.08a10.76,10.76,0,0,0-10.8,10.8V278.16a10.76,10.76,0,0,0,10.8,10.8H600.16a10.76,10.76,0,0,0,10.8-10.8V277.6ZM451.68,267.44V130.16A148.59,148.59,0,0,1,589,267.44H451.68Zm0,0" transform="translate(-230 -108.08)"/></g></svg>