<svg id="Слой_1" data-name="Слой 1" xmlns="http://www.w3.org/2000/svg" xmlns:xlink="http://www.w3.org/1999/xlink" viewBox="0 0 382.96 382.96"><defs><style>.cls-1{fill:none;}.cls-2{clip-path:url(#clip-path);}</style><clipPath id="clip-path" transform="translate(-229 -106.12)"><rect class="cls-1" x="229" y="106.28" width="382.8" height="383.76"/></clipPath></defs><title>settings</title><g class="cls-2"><path d="M592.36,257.4l-26.88-4.56a152,152,0,0,0-10.8-26.08l15.84-22.16A23.59,23.59,0,0,0,568,174.12l-23.84-23.84a23.49,23.49,0,0,0-16.72-7,23.23,23.23,0,0,0-13.68,4.4l-22.24,15.84a150.13,150.13,0,0,0-27-11.12L460,125.88a23.64,23.64,0,0,0-23.36-19.76H402.92a23.64,23.64,0,0,0-23.36,19.76l-4.64,27.2a147.88,147.88,0,0,0-26,11l-22-15.84a23.63,23.63,0,0,0-30.48,2.56L272.52,174.6A23.68,23.68,0,0,0,270,205.08l16,22.48a147.91,147.91,0,0,0-10.64,26.16l-26.56,4.48A23.64,23.64,0,0,0,229,281.56v33.68a23.63,23.63,0,0,0,19.76,23.36l27.2,4.64a148.14,148.14,0,0,0,11,26l-15.76,21.92a23.59,23.59,0,0,0,2.56,30.48l23.84,23.84A23.53,23.53,0,0,0,328,448l22.48-16a151.31,151.31,0,0,0,25.28,10.4l4.48,26.88a23.64,23.64,0,0,0,23.36,19.76h33.76a23.63,23.63,0,0,0,23.36-19.76l4.56-26.88a151.54,151.54,0,0,0,26.08-10.8l22.16,15.84A23.62,23.62,0,0,0,544,444.92l23.84-23.84a23.68,23.68,0,0,0,2.56-30.48l-15.84-22.24a150.26,150.26,0,0,0,10.8-26.08l26.88-4.48A23.63,23.63,0,0,0,612,314.44V280.76a23.34,23.34,0,0,0-19.6-23.36h0Zm-1.84,57a2.07,2.07,0,0,1-1.76,2.08l-33.6,5.6a10.74,10.74,0,0,0-8.64,7.92,128.15,128.15,0,0,1-13.92,33.52,10.82,10.82,0,0,0,.48,11.76l19.76,27.84a2.19,2.19,0,0,1-.24,2.72l-23.84,23.84a2,2,0,0,1-1.52.64,2,2,0,0,1-1.2-.4L498.28,410.2a10.82,10.82,0,0,0-11.76-.48A128.12,128.12,0,0,1,453,423.64a10.62,10.62,0,0,0-7.92,8.64l-5.68,33.6a2.07,2.07,0,0,1-2.08,1.76H403.64a2.07,2.07,0,0,1-2.08-1.76l-5.6-33.6a10.75,10.75,0,0,0-7.92-8.64,133,133,0,0,1-32.8-13.44,11.09,11.09,0,0,0-5.44-1.44,10.54,10.54,0,0,0-6.24,2l-28,19.92a2.35,2.35,0,0,1-1.2.4,2.15,2.15,0,0,1-1.52-.64L289,406.6a2.16,2.16,0,0,1-.24-2.72l19.68-27.6a11,11,0,0,0,.48-11.84A126.72,126.72,0,0,1,294.84,331a11,11,0,0,0-8.64-7.92l-33.84-5.76a2.07,2.07,0,0,1-1.76-2.08V281.56a2.07,2.07,0,0,1,1.76-2.08l33.36-5.6a10.82,10.82,0,0,0,8.72-8,127.83,127.83,0,0,1,13.68-33.6,10.68,10.68,0,0,0-.56-11.68l-19.92-28a2.17,2.17,0,0,1,.24-2.72L311.72,166a2,2,0,0,1,1.52-.64,2,2,0,0,1,1.2.4L342,185.48a11,11,0,0,0,11.84.48,126.91,126.91,0,0,1,33.44-14.08,11,11,0,0,0,7.92-8.64L401,129.4a2.07,2.07,0,0,1,2.08-1.76h33.68a2.07,2.07,0,0,1,2.08,1.76l5.6,33.36a10.81,10.81,0,0,0,8,8.72,129.88,129.88,0,0,1,34.32,14.08,10.81,10.81,0,0,0,11.76-.48l27.6-19.84a2.36,2.36,0,0,1,1.2-.4,2.15,2.15,0,0,1,1.52.64l23.84,23.84a2.18,2.18,0,0,1,.24,2.72L533.16,219.8a10.81,10.81,0,0,0-.48,11.76,128.09,128.09,0,0,1,13.92,33.52,10.61,10.61,0,0,0,8.64,7.92l33.6,5.68a2.08,2.08,0,0,1,1.76,2.08v33.68h-0.08Zm0,0" transform="translate(-229 -106.12)"/></g><path d="M420.52,214.92a82.64,82.64,0,1,0,82.64,82.64,82.69,82.69,0,0,0-82.64-82.64h0Zm0,143.68a61,61,0,1,1,61-61,61.08,61.08,0,0,1-61,61h0Zm0,0" transform="translate(-229 -106.12)"/></svg>