<svg id="Capa_1" data-name="Capa 1" xmlns="http://www.w3.org/2000/svg" viewBox="0 0 612 774.27"><title>bin</title><path d="M640.35,91.17H537V24c0-13.52-10.91-24-24.43-24a3.65,3.65,0,0,0-2.61.87A3.32,3.32,0,0,0,508.18,0H261.72a23.65,23.65,0,0,0-24,24V91.17H133.92c-29.67,0-52.78,23.12-52.78,52.78v86.37h45.8v491.6c0,29.67,22.68,52.35,52.35,52.35H595c29.67,0,52.78-22.68,52.78-52.35V230.32h45.37V144C693.13,114.29,670,91.17,640.35,91.17ZM285.71,48H488.55V91.17H285.71V48ZM599.35,721.92c0,3.06-1.31,4.36-4.36,4.36H179.28c-3.05,0-4.36-1.3-4.36-4.36V230.32H599.35v491.6Zm45.37-539.58H129.55V144c0-3.05,1.31-4.8,4.36-4.8H640.35c3.05,0,4.36,1.75,4.36,4.8v38.39h0Z" transform="translate(-81.13 0)"/><rect x="393.9" y="286.59" width="48.42" height="396.94"/><rect x="282.23" y="286.59" width="48.42" height="396.94"/><rect x="170.56" y="286.59" width="48.42" height="396.94"/></svg>