<svg id="Layer_1" data-name="Layer 1" xmlns="http://www.w3.org/2000/svg" viewBox="0 0 214.64 56.42"><defs><style>.cls-1{fill:#fff;}.cls-2{fill:#cd5e60;}.cls-3{fill:#d68a8f;}</style></defs><title>logo</title><path class="cls-1" d="M97.23,73c3.09,0,6.32,1.62,7.07,5.44h-3.86a3.14,3.14,0,0,0-3.2-1.84c-2.48,0-3.82,1.93-3.82,4.28,0,2.55,1.49,4.21,3.82,4.21a3.12,3.12,0,0,0,3.29-1.89H97.25v-3.4h7.26a11.17,11.17,0,0,1-.44,4.5c-1.1,3.2-4,4.43-6.85,4.43A7.87,7.87,0,1,1,97.23,73Z" transform="translate(-33.74 -54.32)"/><path class="cls-1" d="M120.6,88v0.57h-4.39l-2.63-4.52h-2v4.52h-3.93V73.22h6.74c6,0,7.13,7.28,3.25,9.92Zm-6.25-11.28c-0.92,0-1.89,0-2.81,0v3.8h2.81C116.47,80.53,116.58,76.76,114.34,76.73Z" transform="translate(-33.74 -54.32)"/><path class="cls-1" d="M132.51,86.65h-6.06l-0.9,1.93h-3.84V88l6.91-15h1.69l6.93,15v0.57h-3.84Zm-3-7.42-1.71,4h3.47Z" transform="translate(-33.74 -54.32)"/><path class="cls-1" d="M143.33,81v7.55h-4.06V73.16h1.43l7.77,7.59V73.22h4V88.61h-1.4Z" transform="translate(-33.74 -54.32)"/><path class="cls-1" d="M162.18,88.58h-5.79V73.22h5.79C172.19,73.27,172.19,88.54,162.18,88.58ZM160.32,85h1.87c4.89,0,4.89-8.21,0-8.21h-1.87V85Z" transform="translate(-33.74 -54.32)"/><path class="cls-2" d="M184,73c3.18,0,6.63,1.73,7.22,5.84h-3.86A3.22,3.22,0,0,0,184,76.62c-2.3,0-3.82,1.73-3.82,4.28A4,4,0,0,0,184,85.16a3.27,3.27,0,0,0,3.42-2.48h3.86c-0.57,4.34-4,6.06-7.28,6.06A7.84,7.84,0,1,1,184,73Z" transform="translate(-33.74 -54.32)"/><path class="cls-2" d="M198.23,85.05h5.57v3.53h-9.52V73.22h3.95V85.05Z" transform="translate(-33.74 -54.32)"/><path class="cls-2" d="M216.05,86.65H210l-0.9,1.93h-3.84V88l6.91-15h1.69l6.93,15v0.57H217Zm-3-7.42-1.71,4h3.47Z" transform="translate(-33.74 -54.32)"/><path class="cls-2" d="M230.34,84c0-1.08-1.27-1.25-2.81-1.34-3.34-.24-5.53-1.38-5.57-4.72-0.13-6.63,11.8-6.63,11.72,0h-3.73c0-2-4.12-1.86-4.26,0-0.09,1.16,1.05,1.4,2.44,1.56,3.05,0.33,6,.72,6,4.56,0,6.45-12.51,6.63-12.42-.13h3.8C225.53,85.84,230.34,85.8,230.34,84Z" transform="translate(-33.74 -54.32)"/><path class="cls-2" d="M244.56,84c0-1.08-1.27-1.25-2.81-1.34-3.34-.24-5.53-1.38-5.57-4.72-0.13-6.63,11.8-6.63,11.72,0h-3.73c0-2-4.12-1.86-4.26,0-0.09,1.16,1.05,1.4,2.44,1.56,3.05,0.33,6,.72,6,4.56,0,6.45-12.51,6.63-12.42-.13h3.8C239.75,85.84,244.56,85.8,244.56,84Z" transform="translate(-33.74 -54.32)"/><polygon class="cls-2" points="11.24 20.79 0.01 27.29 0 14.31 11.24 20.79"/><polygon class="cls-2" points="35.85 6.48 24.62 12.98 24.61 0 35.85 6.48"/><polygon class="cls-2" points="23.23 13.59 12 20.08 11.99 7.11 23.23 13.59"/><polygon class="cls-3" points="23.23 42.82 12 49.31 11.99 36.34 23.23 42.82"/><polygon class="cls-3" points="11.24 35.21 0.01 41.71 0 28.73 11.24 35.21"/><polygon class="cls-3" points="47.7 28.46 36.47 34.95 36.46 21.98 47.7 28.46"/><polygon class="cls-2" points="35.85 49.92 24.62 56.42 24.61 43.45 35.85 49.92"/><polygon class="cls-2" points="47.82 42.96 36.59 49.46 36.58 36.48 47.82 42.96"/><polygon class="cls-2" points="0 28 11.23 34.5 11.24 21.52 0 28"/><polygon class="cls-3" points="24.49 28.46 35.72 34.95 35.73 21.98 24.49 28.46"/><polygon class="cls-2" points="36.77 35.7 48 42.19 48.01 29.22 36.77 35.7"/><polygon class="cls-2" points="12.56 6.56 23.79 13.05 23.8 0.08 12.56 6.56"/><polygon class="cls-3" points="12.56 49.92 23.79 56.42 23.8 43.45 12.56 49.92"/><polygon class="cls-3" points="0 42.42 11.23 48.91 11.24 35.94 0 42.42"/><polygon class="cls-2" points="24.7 42.82 35.93 49.31 35.94 36.34 24.7 42.82"/><polygon class="cls-2" points="0 13.59 11.23 20.08 11.24 7.11 0 13.59"/></svg>