<svg id="Слой_1" data-name="Слой 1" xmlns="http://www.w3.org/2000/svg" viewBox="0 0 379.2 284.32"><title>mail</title><path d="M580,156.28H259.2a29.26,29.26,0,0,0-29.2,29.2V411.4a29.26,29.26,0,0,0,29.2,29.2H580a29.26,29.26,0,0,0,29.2-29.2V185.48a29.26,29.26,0,0,0-29.2-29.2h0Zm-4.24,21.6L421.6,309.72,267.44,177.88H575.76ZM587.6,411.4A7.65,7.65,0,0,1,580,419H259.2a7.64,7.64,0,0,1-7.6-7.6V192.76l163,139.36c0.08,0.08.24,0.16,0.32,0.24s0.24,0.16.32,0.24a2.82,2.82,0,0,0,.64.4c0.08,0.08.16,0.08,0.24,0.16l1,0.48c0.08,0,.16.08,0.24,0.08,0.24,0.08.48,0.24,0.8,0.32,0.08,0,.24.08,0.32,0.08a2.3,2.3,0,0,0,.72.16c0.08,0,.24.08,0.32,0.08,0.24,0.08.56,0.08,0.8,0.16h0.24c0.32,0,.72.08,1,0.08a4.45,4.45,0,0,0,1-.08h0.24a2.81,2.81,0,0,0,.8-0.16c0.08,0,.24-0.08.32-0.08a2.36,2.36,0,0,1,.72-0.16c0.08,0,.24-0.08.32-0.08a5.81,5.81,0,0,0,.8-0.32c0.08,0,.16-0.08.24-0.08l1-.48c0.08-.08.16-0.08,0.24-0.16,0.24-.16.4-0.24,0.64-0.4,0.08-.08.24-0.16,0.32-0.24s0.24-.16.32-0.24L587.6,196.2V411.4Zm0,0" transform="translate(-230 -156.28)"/></svg>