<svg id="Слой_1" data-name="Слой 1" xmlns="http://www.w3.org/2000/svg" xmlns:xlink="http://www.w3.org/1999/xlink" viewBox="0 0 281.84 363.31"><defs><style>.cls-1{fill:none;}.cls-2{clip-path:url(#clip-path);}</style><clipPath id="clip-path" transform="translate(-279 -116.81)"><rect class="cls-1" x="279" y="116.28" width="282" height="364.8"/></clipPath></defs><title>music</title><g class="cls-2"><path d="M551.09,374.37a115.56,115.56,0,0,1-33.85-81.71V264a97.35,97.35,0,0,0-73.7-94.43V140.43a23.62,23.62,0,0,0-47.24,0v29.13A97.35,97.35,0,0,0,322.6,264v28.66a115.58,115.58,0,0,1-33.84,81.71,33.3,33.3,0,0,0,23.55,56.86H371a48.89,48.89,0,1,0,97.79,0h58.72a33.3,33.3,0,0,0,23.56-56.86h0ZM419.92,456.12A24.92,24.92,0,0,1,395,431.23h49.79a24.92,24.92,0,0,1-24.89,24.89h0Zm116.21-54.64a9.28,9.28,0,0,1-8.6,5.74H312.31a9.31,9.31,0,0,1-6.58-15.89,138.64,138.64,0,0,0,40.88-98.68V264a73.32,73.32,0,0,1,146.64,0v28.67a138.64,138.64,0,0,0,40.88,98.68,9.28,9.28,0,0,1,2,10.14h0Zm0,0" transform="translate(-279 -116.81)"/></g></svg>