<svg id="Capa_1" data-name="Capa 1" xmlns="http://www.w3.org/2000/svg" viewBox="0 0 469.33 469.28"><title>pen</title><path d="M438.93,30.4a103.51,103.51,0,0,0-146.5,0L23.83,298.9a13.44,13.44,0,0,0-3.8,7.7L0.13,454a13.39,13.39,0,0,0,3.8,11.3,13.66,13.66,0,0,0,9.5,4,10.87,10.87,0,0,0,1.8-.1l88.8-12a13.52,13.52,0,0,0-3.6-26.8L29.23,440l13.9-102.8,108.2,108.2a13.66,13.66,0,0,0,9.5,4,13.24,13.24,0,0,0,9.5-4l268.6-268.5A103.45,103.45,0,0,0,438.93,30.4Zm-141.3,33,45.1,45.1L97.63,353.6l-45.1-45.1ZM160.93,416.8l-44.1-44.1,245.1-245.1L406,171.7Zm263.9-264.4L316.93,44.5A76.65,76.65,0,0,1,424.83,152.4Z" transform="translate(0 -0.03)"/></svg>